<?xml version="1.0" standalone="no"?>
<!DOCTYPE svg PUBLIC "-//W3C//DTD SVG 20010904//EN"
 "http://www.w3.org/TR/2001/REC-SVG-20010904/DTD/svg10.dtd">
<svg version="1.0" xmlns="http://www.w3.org/2000/svg"
 width="1693.000000pt" height="1669.000000pt" viewBox="0 0 1693.000000 1669.000000"
 preserveAspectRatio="xMidYMid meet">
<metadata>
Created by potrace 1.16, written by Peter Selinger 2001-2019
</metadata>
<g transform="translate(0.000000,1669.000000) scale(0.100000,-0.100000)"
fill="#000000" stroke="none">
<path d="M7930 16054 c-19 -7 -46 -13 -60 -13 -14 -1 -56 -8 -95 -16 -45 -9
-73 -11 -79 -5 -19 19 -92 10 -175 -20 -45 -17 -86 -28 -91 -25 -4 3 -24 -2
-43 -10 -21 -9 -49 -12 -71 -8 -31 5 -42 1 -64 -19 -20 -19 -42 -27 -90 -32
-35 -4 -76 -12 -90 -19 -30 -13 -112 -64 -154 -97 -14 -11 -30 -20 -36 -20
-19 0 -74 -33 -80 -49 -3 -9 -17 -28 -31 -42 -34 -34 -91 -113 -91 -126 0 -5
-7 -24 -15 -41 -9 -17 -22 -63 -30 -104 -8 -40 -23 -100 -35 -132 -11 -33 -20
-74 -20 -91 0 -18 -16 -68 -35 -111 -61 -136 -72 -161 -81 -194 -4 -14 -14
-36 -23 -50 -10 -14 -30 -54 -45 -90 -16 -36 -36 -74 -46 -85 -19 -21 -100
-185 -100 -202 0 -6 -7 -17 -16 -24 -17 -14 -124 -173 -124 -184 0 -7 -14 -26
-80 -110 -22 -27 -40 -54 -40 -58 0 -5 -12 -26 -27 -46 -36 -46 -49 -68 -67
-108 -8 -18 -19 -33 -25 -33 -5 0 -24 -27 -42 -60 -17 -33 -35 -60 -39 -60 -4
0 -13 -14 -20 -31 -7 -16 -34 -59 -61 -95 -26 -36 -57 -84 -69 -107 -12 -23
-30 -55 -40 -72 -10 -16 -24 -47 -30 -68 -6 -21 -31 -79 -55 -130 -25 -51 -45
-100 -45 -109 0 -9 -5 -29 -11 -45 -24 -59 -151 -431 -166 -483 -8 -30 -23
-73 -33 -95 -36 -81 -50 -118 -50 -135 0 -24 -46 -60 -77 -60 -13 0 -36 -6
-51 -14 -15 -7 -65 -23 -112 -34 -47 -11 -141 -37 -209 -56 -69 -20 -135 -36
-148 -36 -13 0 -23 -4 -23 -9 0 -5 -28 -16 -62 -24 -35 -8 -90 -23 -123 -32
-33 -9 -76 -20 -95 -25 -45 -11 -215 -68 -258 -86 -18 -8 -43 -14 -56 -14 -13
0 -29 -7 -36 -15 -7 -8 -18 -15 -25 -15 -42 0 -443 -173 -605 -261 -30 -17
-91 -49 -135 -71 -44 -23 -82 -45 -85 -48 -3 -4 -60 -38 -127 -76 -68 -38
-138 -78 -157 -89 -19 -11 -60 -36 -92 -55 -85 -49 -251 -158 -310 -202 -28
-21 -54 -38 -57 -38 -4 0 -15 -7 -24 -16 -10 -8 -32 -25 -50 -37 -62 -43 -159
-119 -222 -174 -20 -18 -39 -33 -43 -33 -20 0 -331 -307 -406 -400 -28 -36
-59 -74 -67 -85 -30 -42 -86 -121 -105 -150 -10 -16 -23 -34 -27 -40 -5 -5
-15 -25 -22 -43 -8 -19 -20 -40 -27 -47 -20 -20 -120 -263 -134 -325 -7 -30
-15 -59 -19 -65 -6 -11 -8 -24 -17 -125 -3 -36 -10 -70 -15 -76 -9 -11 5 -269
21 -377 6 -38 17 -81 25 -97 8 -15 12 -30 10 -32 -11 -11 85 -285 129 -368 38
-72 81 -149 100 -180 11 -19 28 -47 36 -62 74 -135 292 -380 455 -513 21 -16
53 -44 74 -61 34 -28 66 -52 186 -135 68 -48 264 -168 322 -199 291 -152 392
-199 508 -237 44 -14 88 -29 97 -34 9 -5 50 -17 90 -28 40 -11 100 -27 133
-36 33 -9 76 -20 95 -25 19 -5 91 -23 160 -40 263 -66 503 -100 810 -115 41
-2 125 -6 185 -9 61 -3 189 -7 285 -8 l175 -3 -3 35 c-1 19 -6 44 -11 55 -16
40 -31 89 -26 93 17 17 64 -72 76 -143 12 -77 16 -91 39 -142 29 -63 50 -134
44 -144 -3 -5 4 -17 15 -28 15 -15 19 -28 15 -51 -4 -19 -2 -30 5 -30 6 0 11
-6 11 -14 0 -8 6 -21 14 -28 7 -8 17 -25 21 -38 4 -14 17 -38 30 -55 12 -16
35 -54 50 -83 15 -29 43 -67 61 -85 19 -17 34 -36 34 -42 1 -14 120 -101 150
-110 26 -7 41 -12 104 -40 106 -47 754 -47 1126 0 63 8 141 17 172 20 32 4 60
11 63 16 4 5 23 9 44 9 21 0 63 5 92 11 30 5 66 12 81 14 29 4 127 43 143 57
5 4 17 8 27 8 10 0 18 4 18 8 0 5 10 13 23 19 12 6 43 26 69 46 26 20 45 30
41 22 -3 -8 -10 -15 -17 -15 -6 0 -3 -5 7 -11 14 -8 16 -14 6 -25 -6 -7 -15
-11 -20 -8 -5 3 -9 2 -8 -3 4 -22 -3 -33 -18 -34 -15 0 -15 -2 2 -9 11 -5 14
-9 8 -9 -15 -1 -17 -48 -3 -53 6 -2 12 -17 13 -33 1 -17 7 -33 12 -37 6 -5 5
-11 -3 -17 -11 -7 -10 -9 3 -15 10 -3 13 -11 9 -18 -14 -23 -10 -54 8 -55 12
-1 15 3 11 14 -5 12 -2 15 11 10 10 -4 19 -1 22 8 4 8 10 12 15 9 5 -3 9 0 9
5 0 6 9 20 20 31 11 11 17 26 14 35 -4 10 0 15 12 15 9 0 15 3 12 6 -4 3 2 14
13 25 10 10 19 26 19 34 0 8 6 15 14 15 8 0 21 3 29 6 12 4 14 0 10 -14 -3
-14 2 -24 16 -31 18 -10 21 -9 21 9 0 12 7 20 18 21 11 0 13 2 4 6 -10 4 -7 9
10 17 16 8 22 19 21 36 -2 23 -2 23 6 5 11 -22 11 -20 17 45 1 25 10 79 18
120 8 41 12 78 10 82 -3 4 2 21 10 37 11 20 14 45 10 81 -3 39 -2 51 8 48 12
-4 38 48 40 80 1 6 8 12 15 12 12 0 11 3 -2 16 -11 11 -13 20 -6 28 7 9 7 16
-2 25 -9 10 -8 15 6 26 10 7 18 17 19 22 0 4 4 7 9 5 5 -1 6 10 3 24 -5 19 -4
25 5 20 7 -5 11 0 11 13 0 12 7 21 15 21 13 0 20 18 16 43 0 4 4 7 10 7 8 0 8
4 -1 15 -6 8 -9 19 -5 25 3 5 6 31 5 57 -5 230 -5 275 2 279 4 3 6 28 3 56 -4
51 13 122 42 178 7 14 13 32 13 41 0 9 11 24 24 35 14 10 23 21 21 24 -2 3 11
12 28 19 18 8 50 23 72 33 30 15 69 21 162 24 79 3 124 1 128 -6 3 -6 10 -8
15 -5 18 11 126 -109 157 -175 66 -141 73 -157 73 -173 0 -10 4 -25 10 -35 10
-18 55 -184 64 -237 11 -63 19 -90 26 -95 11 -7 90 -166 90 -179 0 -6 4 -11 9
-11 5 0 12 -14 16 -30 4 -17 10 -30 15 -30 4 0 13 -14 19 -31 7 -20 15 -28 23
-23 7 4 10 4 6 -1 -4 -4 2 -21 14 -37 17 -25 18 -32 7 -39 -11 -8 -9 -9 6 -7
14 2 21 -3 23 -19 3 -20 6 -21 24 -10 16 9 22 9 25 0 2 -7 12 -9 20 -6 13 5
15 2 10 -11 -4 -11 -3 -15 4 -10 6 3 9 17 6 30 -6 34 9 39 30 12 113 -142 297
-230 547 -263 138 -17 430 -19 561 -4 39 5 110 13 159 18 64 6 93 14 102 25 9
13 13 14 17 4 5 -11 8 11 7 40 -1 4 47 15 106 24 58 9 112 22 118 28 12 12
-66 6 -139 -12 -38 -9 -164 -33 -230 -43 -70 -11 -319 -25 -440 -25 -155 0
-376 25 -425 48 -22 11 -56 16 -91 15 l-56 -1 1 38 c0 29 -5 44 -23 59 -13 12
-21 21 -16 21 4 0 -11 17 -34 39 -22 21 -41 46 -41 54 0 9 -4 19 -10 22 -5 3
-10 18 -10 33 0 23 -51 143 -81 192 -5 8 -18 35 -30 60 -11 25 -25 53 -30 62
-5 10 -9 26 -9 35 -1 10 -9 36 -20 58 -11 22 -19 43 -20 47 0 4 -13 29 -30 55
-16 26 -30 54 -30 62 0 31 -101 202 -145 246 -46 45 -58 83 -101 300 -26 133
-18 164 56 234 47 45 77 63 147 89 48 18 117 46 153 62 78 35 140 46 170 30
13 -7 20 -8 17 -3 -21 34 104 83 232 89 68 3 88 8 107 25 12 11 41 23 66 26
l43 5 -26 -26 c-24 -26 -41 -30 -134 -36 -20 -1 -25 -4 -15 -8 8 -4 14 -16 14
-27 -1 -11 -2 -29 -3 -40 -2 -33 -16 -48 -40 -40 -25 8 -28 45 -5 79 15 24 11
34 -13 30 -7 -1 -20 -2 -29 -3 -8 0 -12 -5 -9 -11 3 -5 0 -7 -8 -5 -16 7 -80
-19 -94 -37 -15 -20 -31 -88 -32 -143 -2 -53 -4 -74 -16 -147 -4 -25 -4 -60 0
-77 6 -27 9 -30 26 -20 11 5 17 14 14 19 -3 4 7 13 23 19 26 11 48 24 104 64
32 22 86 38 93 27 3 -5 1 -11 -4 -14 -22 -14 -9 -71 24 -106 18 -19 38 -52 43
-72 16 -57 49 -85 142 -118 96 -34 113 -32 225 22 65 31 88 55 134 145 11 23
21 58 21 78 0 46 15 75 40 75 10 0 23 6 27 14 4 7 18 17 31 20 18 6 22 4 22
-14 0 -29 18 -60 35 -60 20 0 23 21 9 64 -23 63 -18 87 27 133 22 24 46 43 52
42 8 0 8 -2 -1 -6 -10 -4 -11 -22 -6 -73 6 -61 4 -72 -19 -111 -21 -37 -24
-47 -14 -64 13 -22 37 -31 37 -14 0 5 4 8 9 4 5 -3 13 -47 17 -98 6 -75 9 -87
16 -64 5 15 14 27 19 27 5 0 9 6 9 13 0 7 9 29 20 50 27 50 28 153 3 162 -26
8 -83 88 -83 116 0 20 2 21 11 9 8 -12 9 -9 5 11 -4 20 -1 28 17 37 12 6 16
11 8 11 -11 1 -11 4 -1 16 21 26 41 19 35 -12 -5 -27 -5 -27 5 -4 6 13 8 26 6
29 -10 9 122 152 140 152 18 0 22 -70 21 -340 -1 -234 -1 -235 20 -232 14 2
23 -3 26 -15 4 -16 5 -16 6 2 1 15 3 17 10 7 5 -9 13 7 24 48 13 53 13 62 1
67 -11 4 -12 9 -4 18 8 9 7 14 -1 17 -9 3 -13 39 -14 119 -2 118 -8 149 -30
149 -7 0 -15 10 -19 23 -9 34 -7 40 8 28 10 -9 15 -8 18 1 5 11 4 23 -1 70 -1
4 -8 5 -16 1 -17 -6 -17 17 -1 29 6 4 -2 12 -16 19 -21 9 -33 9 -57 -2 -17 -8
-31 -17 -31 -21 0 -5 -5 -8 -11 -8 -13 0 -40 -26 -33 -33 3 -2 -11 -7 -30 -9
-20 -2 -36 0 -36 5 0 4 -4 5 -10 2 -5 -3 -10 -2 -10 3 0 13 -39 22 -46 11 -8
-13 -31 -11 -46 5 -18 17 -76 26 -81 12 -3 -8 -9 -7 -19 1 -10 9 -18 9 -25 2
-8 -8 -18 -7 -34 4 -24 15 -94 32 -115 28 -7 -1 -14 5 -17 12 -9 24 102 45
260 50 46 1 83 -2 83 -7 0 -4 8 -5 18 -1 37 15 264 28 492 27 88 0 133 2 114
7 -17 4 -42 15 -55 24 -27 20 -119 23 -151 6 -27 -15 -197 -26 -239 -16 -19 4
-45 9 -59 11 -40 5 -40 5 -40 26 0 15 7 20 28 20 15 0 32 4 38 10 14 14 154
32 168 21 6 -4 24 -11 40 -14 22 -4 34 1 52 20 22 24 31 26 116 26 87 1 98 -2
168 -36 49 -24 101 -40 150 -47 114 -17 219 -42 238 -58 15 -12 14 -13 -15 -8
-21 4 -33 1 -37 -9 -4 -11 -23 -13 -93 -9 -48 2 -90 9 -94 15 -4 7 -9 5 -12
-5 -4 -9 -11 -16 -18 -16 -6 0 -9 7 -5 15 3 8 3 15 0 15 -2 0 -9 -12 -15 -27
-7 -16 -13 -23 -16 -15 -3 6 -11 12 -20 12 -10 0 -12 6 -8 20 7 22 -5 26 -23
8 -9 -9 -15 -9 -24 0 -7 7 -17 12 -23 12 -5 -1 1 -10 14 -20 13 -11 19 -20 15
-21 -5 0 -31 -2 -59 -4 -140 -11 -138 -10 -125 -89 11 -68 14 -73 35 -56 9 8
15 8 15 2 0 -6 16 -16 35 -23 19 -7 35 -19 35 -26 0 -16 53 -73 69 -73 6 0 11
-4 11 -8 0 -4 15 -23 34 -43 32 -32 35 -41 43 -124 9 -103 9 -431 -1 -541 -10
-113 9 -95 44 41 5 22 10 54 10 71 0 17 8 38 18 46 35 31 68 43 239 88 68 17
73 27 73 148 -1 203 -42 452 -75 452 -18 0 -42 32 -47 63 -7 37 15 36 74 -3
62 -41 72 -56 93 -135 27 -99 32 -238 18 -480 -14 -260 -25 -357 -63 -560 -28
-150 -91 -335 -145 -427 -61 -105 -123 -157 -243 -203 -54 -21 -108 -42 -122
-48 -14 -6 -38 -12 -55 -14 -28 -3 -46 -17 -71 -59 -7 -11 -15 -15 -20 -11 -5
4 -2 17 5 28 18 31 6 35 -47 16 -26 -9 -62 -17 -80 -17 -20 0 -31 -4 -27 -10
3 -5 -1 -23 -11 -39 -15 -25 -26 -30 -85 -40 -37 -6 -80 -11 -94 -11 -14 0
-24 -4 -20 -9 8 -14 84 -5 215 24 63 14 146 30 185 36 38 6 81 16 95 24 14 7
41 16 60 20 52 10 207 91 272 143 96 75 133 133 197 308 46 127 114 429 136
605 8 62 31 81 108 90 59 7 135 18 272 40 33 5 80 12 105 14 25 3 83 12 130
20 161 28 195 34 280 45 47 6 117 18 155 25 39 8 111 21 160 30 315 56 645
140 919 235 167 57 228 80 263 96 17 7 33 14 36 14 7 0 206 94 302 142 102 52
323 199 445 297 249 199 390 395 460 641 53 183 52 468 -2 730 -14 68 -93 313
-113 349 -8 14 -30 64 -50 111 -50 117 -68 154 -76 160 -4 3 -15 19 -25 37
-78 132 -133 216 -179 269 -30 35 -240 244 -245 244 -3 0 -15 8 -26 18 -68 63
-225 186 -275 217 -9 6 -63 42 -121 81 -57 39 -118 78 -134 86 -16 8 -57 33
-91 54 -77 48 -134 80 -238 133 -44 23 -98 52 -121 65 -71 40 -342 165 -386
178 -24 6 -45 15 -48 18 -3 4 -14 9 -25 13 -18 5 -116 43 -170 67 -11 4 -47
18 -80 30 -33 13 -78 31 -100 41 -22 10 -52 20 -66 23 -15 2 -98 28 -185 56
-88 29 -175 56 -194 61 -84 20 -120 29 -190 49 -94 28 -237 63 -500 124 -63
15 -133 31 -155 37 -22 5 -94 18 -160 29 -66 11 -139 24 -162 29 -24 4 -43 7
-43 4 0 -2 -17 5 -38 16 -38 19 -92 99 -92 136 0 9 -15 43 -34 75 -19 31 -37
73 -41 91 -4 19 -11 39 -15 44 -4 6 -27 55 -50 110 -54 126 -225 469 -288 575
-14 25 -41 74 -59 109 -31 59 -58 101 -90 141 -96 121 -163 202 -192 232 -20
20 -43 45 -52 55 -20 23 -94 88 -150 133 -45 35 -65 52 -153 131 -26 24 -101
78 -166 119 -273 175 -374 245 -413 288 -12 12 -46 36 -76 53 -31 18 -87 57
-126 88 -96 77 -296 279 -319 323 -11 20 -29 42 -40 48 -22 12 -76 77 -134
159 -18 25 -41 56 -51 68 -11 13 -22 37 -26 53 -4 17 -17 38 -30 46 -13 8 -35
41 -50 72 -74 157 -253 300 -326 261 -18 -9 -27 -7 -52 11 -26 20 -38 22 -100
17 -49 -4 -80 -13 -99 -27 -25 -19 -31 -19 -62 -6 -18 8 -37 19 -40 25 -9 14
-62 12 -106 -5z m138 -4811 c62 -21 68 -21 80 -6 6 9 12 12 12 5 0 -6 13 -10
30 -9 16 1 30 5 30 10 0 4 8 7 18 7 10 0 24 6 30 12 10 10 15 10 22 -2 9 -14
11 -13 14 10 0 6 6 9 11 8 6 -2 9 -6 8 -10 -2 -5 2 -8 7 -8 6 0 10 5 10 10 0
6 11 10 25 10 14 0 25 -4 25 -10 0 -6 9 -6 25 0 21 8 25 6 26 -8 1 -16 2 -16
6 1 2 9 9 17 14 17 6 0 7 -9 4 -21 -5 -14 -2 -25 6 -30 11 -7 10 -9 -3 -9 -10
0 -18 5 -18 10 0 18 -18 10 -23 -10 -3 -11 -13 -20 -22 -20 -11 0 -15 5 -12
15 5 12 1 12 -28 -2 -56 -27 -57 -75 -2 -54 17 7 27 7 27 1 0 -16 27 -12 34 5
3 8 10 15 16 15 6 0 8 -4 5 -10 -3 -5 3 -10 14 -10 10 0 22 6 24 13 3 7 6 4 6
-6 1 -17 2 -17 29 1 19 14 32 18 44 11 10 -6 27 -5 43 1 15 6 32 7 38 3 26
-16 37 -12 26 8 -6 11 -8 25 -5 32 2 7 5 5 5 -5 1 -9 5 -20 11 -23 6 -4 7 1 3
11 -5 13 -3 15 7 9 8 -5 11 -4 7 3 -12 18 3 40 29 40 13 0 24 -4 24 -9 0 -5 5
-9 11 -9 5 0 8 4 5 9 -3 5 13 13 37 19 23 6 43 8 45 3 1 -5 16 -7 32 -5 30 4
40 -9 18 -22 -8 -5 -7 -10 3 -18 8 -6 19 -20 25 -31 6 -11 22 -23 35 -26 23
-7 22 -7 -6 -9 -18 -1 -23 -4 -12 -7 9 -2 17 -8 17 -12 0 -5 11 -6 25 -3 15 2
25 0 25 -8 0 -7 7 -4 18 6 16 17 17 17 20 0 2 -9 -2 -24 -10 -33 -12 -15 -11
-15 10 -4 12 6 22 18 22 26 0 8 15 17 38 21 20 4 47 13 59 21 25 17 52 6 77
-28 8 -12 19 -18 25 -14 6 3 11 0 11 -7 0 -11 2 -11 9 0 8 13 34 18 61 11 10
-3 14 2 12 14 -3 19 14 24 20 6 2 -7 13 -9 26 -5 17 6 21 13 17 29 -5 21 -5
21 6 2 15 -28 79 -69 79 -50 0 7 -9 16 -19 20 -24 7 -36 35 -16 35 8 0 15 -7
15 -15 0 -19 8 -19 41 -1 16 8 32 10 40 5 11 -6 11 -9 2 -10 -23 -3 -28 -4
-41 -12 -7 -5 -10 -13 -6 -18 4 -6 11 -6 20 2 11 9 14 8 14 -5 0 -22 20 -21
21 2 0 14 2 14 9 -3 8 -18 9 -18 10 5 l1 25 10 -24 9 -24 28 24 c15 13 30 29
34 34 5 6 8 5 8 -2 0 -7 7 -13 15 -13 8 0 15 -5 15 -11 0 -7 9 -9 21 -6 12 3
22 0 26 -9 4 -11 14 -13 34 -9 22 5 29 3 29 -9 0 -9 5 -16 11 -16 6 0 7 -6 2
-12 -4 -7 5 -5 20 5 33 21 44 22 26 1 -12 -15 -11 -16 9 -10 15 5 21 4 19 -6
-2 -7 -2 -10 0 -5 3 4 12 7 20 7 9 0 13 6 9 15 -7 20 3 19 26 -2 16 -15 18
-15 18 0 0 23 27 10 34 -16 l6 -22 20 25 c16 20 20 22 20 8 0 -10 5 -18 11
-18 6 0 8 9 4 23 -4 14 -3 18 3 9 5 -7 16 -10 25 -6 13 4 16 2 12 -9 -4 -8 1
-17 9 -20 9 -4 13 -12 10 -20 -3 -8 2 -14 11 -14 8 0 15 7 15 16 1 14 3 14 14
-2 12 -15 15 -15 26 -2 6 8 17 13 23 12 7 -1 11 4 9 11 -3 17 9 15 24 -5 10
-14 15 -15 25 -6 10 10 15 8 24 -10 6 -13 18 -21 29 -19 10 2 16 0 13 -5 -2
-4 9 -18 24 -31 26 -21 29 -22 30 -5 1 10 1 21 0 26 0 4 3 7 7 7 11 0 34 -68
27 -80 -3 -5 1 -10 9 -10 23 0 31 4 28 13 -3 11 16 9 23 -3 3 -6 17 -7 30 -4
20 5 24 1 30 -25 4 -17 11 -31 16 -31 13 0 11 24 -3 38 -8 8 -8 12 -1 12 12 0
46 -49 46 -67 0 -7 3 -10 7 -8 16 10 82 -18 97 -41 13 -20 21 -24 45 -19 16 4
28 3 27 -2 -4 -22 3 -25 20 -9 18 17 19 16 18 -14 -2 -23 4 -36 18 -44 11 -6
24 -17 28 -23 4 -7 16 -13 25 -13 15 0 15 2 2 10 -13 8 -13 10 1 10 19 0 29
-20 29 -55 0 -13 4 -27 10 -30 6 -4 9 3 7 16 -1 12 3 24 9 26 7 2 10 -7 8 -24
-2 -15 -1 -20 2 -10 7 21 24 23 24 2 0 -9 6 -12 15 -9 13 5 14 2 5 -21 -12
-30 2 -65 25 -65 8 0 15 -7 15 -15 0 -8 9 -15 20 -15 22 0 27 15 8 23 -8 3 -5
6 6 6 14 1 17 -4 14 -24 -3 -14 -1 -28 4 -31 6 -4 5 -10 -3 -15 -12 -8 -12
-10 0 -18 8 -5 10 -14 6 -21 -5 -8 -3 -11 6 -8 8 3 13 12 11 22 -2 9 2 16 8
16 5 0 10 -9 10 -20 0 -11 6 -20 14 -20 17 0 27 -45 13 -59 -6 -6 -4 -18 7
-32 9 -13 16 -34 16 -46 0 -14 6 -23 15 -23 23 0 18 -28 -6 -35 -20 -7 -20 -7
-2 -22 13 -10 15 -16 6 -19 -15 -7 -17 -44 -3 -44 6 0 10 -5 10 -11 0 -5 -4
-7 -10 -4 -5 3 -10 -3 -10 -13 0 -11 -12 -27 -26 -37 -20 -13 -23 -19 -13 -25
10 -7 10 -12 0 -23 -9 -12 -9 -16 0 -19 8 -3 9 -9 4 -18 -5 -8 -8 -32 -6 -54
2 -24 -2 -42 -11 -47 -10 -7 -8 -12 10 -24 12 -9 22 -23 22 -31 0 -8 3 -13 8
-13 4 1 19 1 33 0 23 -1 26 -5 22 -28 -9 -60 -15 -77 -21 -66 -5 7 -17 2 -37
-15 -20 -17 -26 -27 -17 -30 7 -2 21 -13 31 -24 18 -19 18 -19 14 6 -3 16 -10
23 -19 19 -8 -3 -14 -1 -14 5 0 5 7 12 15 16 8 3 15 0 15 -5 0 -6 9 -9 19 -6
14 3 18 1 14 -9 -3 -8 -1 -14 5 -14 6 0 13 14 17 31 8 36 17 31 20 -10 2 -17
-2 -29 -8 -28 -6 1 -12 -7 -13 -18 -3 -18 -2 -18 3 -1 4 15 7 16 14 5 6 -10 9
-10 9 -1 0 6 4 12 9 12 6 0 9 -18 9 -40 0 -33 -5 -43 -27 -55 -14 -8 -22 -14
-18 -15 5 0 18 5 29 11 14 8 23 8 31 0 8 -8 5 -11 -10 -11 -33 0 -38 -20 -6
-21 21 -1 23 -3 8 -6 -27 -7 -45 -23 -45 -40 0 -8 -8 -22 -17 -31 -13 -13 -16
-14 -11 -2 3 8 9 23 14 34 6 15 4 17 -14 12 -12 -4 -23 -2 -28 5 -5 9 -2 10 9
6 18 -7 22 9 8 32 -6 9 -11 10 -15 2 -5 -8 -11 -7 -20 2 -14 13 -10 41 5 31 5
-3 9 -2 9 3 0 4 3 19 7 33 l6 25 -26 -24 c-15 -14 -30 -21 -34 -17 -4 4 -1 11
7 16 12 7 11 12 -4 29 -10 11 -23 18 -28 15 -5 -3 -1 -12 9 -19 14 -11 15 -16
6 -26 -10 -10 -9 -15 5 -26 16 -14 16 -14 0 -9 -11 3 -15 1 -12 -8 3 -8 1 -17
-5 -20 -7 -4 -7 -15 -1 -31 7 -17 5 -28 -4 -38 -17 -16 -12 -64 8 -86 13 -14
13 -20 3 -30 -10 -11 -5 -12 23 -6 31 7 33 6 21 -8 -17 -21 -5 -43 15 -26 11
9 14 8 14 -3 0 -15 -19 -38 -32 -38 -4 0 -8 8 -8 17 0 13 -3 14 -11 6 -6 -6
-17 -9 -24 -7 -17 7 -31 -16 -15 -26 8 -5 9 -10 2 -14 -6 -4 -26 3 -44 14 -34
20 -53 26 -45 13 3 -5 -15 -6 -39 -4 -24 1 -44 7 -44 12 0 4 -7 6 -15 3 -8 -3
-46 6 -84 21 -54 20 -84 26 -133 24 -35 -2 -67 -6 -73 -10 -5 -4 -32 -9 -60
-12 -27 -3 -68 -11 -90 -18 -22 -7 -42 -13 -45 -13 -3 -1 -20 -11 -37 -24 -18
-13 -33 -20 -33 -15 0 4 -7 -3 -16 -15 -11 -16 -19 -20 -28 -13 -8 7 -36 2
-86 -15 -76 -26 -94 -39 -85 -63 3 -8 0 -11 -8 -8 -24 9 -149 -20 -232 -53
-104 -41 -164 -55 -178 -41 -7 7 -16 7 -30 -1 -15 -7 -22 -7 -28 3 -5 8 -9 9
-9 4 0 -18 -60 -39 -73 -26 -16 16 -37 14 -31 -3 8 -21 -28 -36 -68 -30 -37 6
-89 -16 -156 -66 -18 -13 -45 -25 -60 -25 -37 -2 -72 -14 -72 -27 0 -5 -7 -8
-15 -4 -8 3 -15 1 -15 -4 0 -5 -9 -11 -20 -15 -12 -4 -24 -21 -30 -46 -8 -29
-16 -39 -28 -37 -10 2 -17 -4 -17 -13 0 -15 -38 -70 -69 -102 -8 -8 -18 -26
-22 -41 -3 -14 -10 -26 -15 -26 -5 0 -9 -6 -9 -14 0 -8 -7 -22 -16 -30 -14
-15 -13 -16 10 -16 26 0 26 0 -11 -38 -21 -21 -40 -34 -41 -29 -7 15 -31 -14
-25 -30 5 -12 3 -14 -8 -7 -20 12 -38 14 -45 3 -3 -5 -10 -7 -15 -4 -5 4 -9 2
-9 -3 0 -14 -41 -24 -290 -73 -91 -18 -131 -20 -303 -16 -149 3 -201 7 -207
17 -5 7 -15 10 -25 6 -13 -5 -16 -2 -11 9 4 10 1 15 -9 13 -7 -2 -14 1 -14 6
0 8 -32 30 -61 41 -8 4 -28 24 -44 46 -17 21 -33 39 -37 39 -13 0 -64 52 -61
61 1 5 -1 8 -5 7 -5 -2 -9 2 -11 7 -2 6 -9 17 -16 25 -7 8 -16 24 -20 35 -8
20 -8 20 -16 -1 -12 -30 -54 -38 -85 -18 -14 9 -23 20 -20 24 3 5 -4 25 -15
45 -11 19 -20 51 -20 69 0 24 -12 49 -43 89 -23 30 -53 78 -66 106 -14 28 -31
51 -38 51 -16 0 -35 -44 -27 -65 4 -8 1 -15 -6 -15 -7 0 -9 -8 -5 -22 4 -16 3
-19 -3 -10 -7 11 -11 10 -17 -5 -5 -10 -7 -21 -7 -25 1 -5 -2 -8 -8 -8 -11 0
-1 -32 14 -42 8 -5 7 -8 -1 -8 -6 0 -9 -9 -6 -20 6 -22 -10 -27 -30 -10 -7 6
-33 24 -59 40 -37 23 -48 35 -48 55 0 14 -4 25 -8 25 -5 0 -28 18 -51 40 -23
22 -46 40 -51 40 -5 0 -17 11 -26 26 -15 22 -22 24 -60 21 -23 -3 -47 -8 -53
-12 -6 -3 -11 2 -11 12 0 10 -3 14 -8 8 -10 -15 -26 -11 -102 24 -8 4 -54 8
-102 10 -55 2 -107 10 -140 22 -28 10 -61 16 -74 13 -12 -3 -25 -1 -28 5 -4 5
-13 8 -21 4 -9 -3 -21 0 -29 6 -7 6 -16 8 -19 4 -4 -3 -12 -2 -19 4 -7 5 -23
8 -35 7 -13 0 -23 4 -24 10 0 6 -4 2 -9 -9 -5 -11 -9 -14 -9 -7 -1 7 -5 10
-11 7 -5 -3 -10 -1 -10 5 0 7 -7 10 -15 6 -8 -3 -15 0 -15 6 0 7 -16 8 -48 4
-27 -3 -52 -3 -56 1 -9 10 -13 10 -73 12 -32 1 -43 4 -34 10 11 7 9 11 -8 20
-12 7 -26 9 -32 5 -6 -4 -15 0 -21 7 -7 11 -8 11 -6 -3 2 -9 -1 -17 -7 -17 -5
0 -9 7 -7 15 2 8 -5 14 -18 14 -11 0 -20 -4 -20 -10 0 -5 6 -10 13 -10 6 0 1
-6 -13 -14 -29 -15 -36 -11 -45 24 -4 19 0 31 14 44 25 23 26 39 4 62 -16 15
-16 17 3 31 11 9 15 17 8 20 -14 5 -6 95 10 105 8 6 8 8 0 8 -7 0 -14 9 -17
20 -3 11 -2 20 3 20 12 0 20 43 10 55 -6 7 -7 15 -3 18 3 4 0 7 -8 7 -10 1 -9
3 4 11 23 14 22 51 -4 83 -12 15 -19 30 -15 33 3 4 6 1 6 -6 0 -7 5 -9 11 -5
6 3 8 15 6 26 -6 21 21 88 35 88 4 0 8 -4 8 -10 0 -5 7 -10 16 -10 8 0 12 5 9
10 -3 6 -1 10 4 10 6 0 11 4 11 9 0 5 5 22 12 38 6 15 10 39 9 52 -3 28 -26
55 -40 47 -10 -6 -13 93 -4 126 2 10 21 22 45 29 27 7 37 13 29 19 -15 9 -6
70 10 70 6 0 7 4 4 10 -3 5 1 22 10 37 l15 28 -6 -27 c-9 -40 11 -34 23 7 6
19 8 34 4 33 -26 -3 -33 3 -21 17 10 12 16 13 27 3 11 -9 15 -7 20 10 3 13 13
22 24 22 11 0 19 5 19 10 0 6 9 10 19 10 14 0 18 5 14 20 -3 11 -9 20 -14 20
-5 0 -9 5 -9 10 0 6 12 10 28 11 15 0 21 3 15 6 -17 6 -16 23 1 23 8 0 17 7
20 16 3 9 15 14 28 12 19 -2 23 1 20 21 -1 14 6 32 18 44 19 17 23 17 38 4 16
-14 17 -13 19 10 1 18 -2 22 -7 12 -5 -7 -12 -10 -17 -6 -12 12 15 25 43 19
25 -4 34 12 12 22 -7 3 0 3 15 -1 27 -5 28 -4 21 23 -4 16 -3 26 1 22 4 -4 19
4 32 18 14 16 32 24 46 22 25 -3 63 35 51 53 -4 8 1 9 16 4 19 -6 22 -4 17 9
-5 12 0 16 18 16 29 0 34 16 8 23 -16 4 -16 5 1 12 13 6 21 4 24 -3 4 -14 32
-16 32 -3 0 6 -4 13 -10 16 -5 3 -10 18 -9 33 0 15 3 21 6 14 4 -10 8 -10 19
-1 12 10 18 9 27 0 9 -10 8 -12 -8 -9 -12 2 -20 -3 -20 -11 0 -21 20 -24 38
-6 9 8 20 15 26 15 6 0 11 4 11 10 0 5 -7 7 -15 4 -8 -4 -15 -1 -15 5 0 6 7
11 15 11 8 0 15 7 15 15 0 12 5 13 27 4 19 -7 29 -7 31 0 2 6 10 11 17 11 8 0
26 12 40 26 21 21 24 29 13 35 -9 6 -9 9 -1 9 16 0 53 -40 53 -57 0 -7 2 -13
4 -13 2 0 13 -3 23 -6 11 -4 14 -3 7 3 -6 4 -14 22 -17 38 -6 26 -5 28 6 12 6
-10 18 -26 25 -35 12 -15 13 -13 9 12 -5 33 0 56 14 56 5 0 7 -12 4 -27 -6
-27 -6 -27 9 -9 9 11 16 28 16 38 0 21 18 23 44 3 14 -11 17 -22 13 -45 -4
-18 -2 -30 4 -30 6 0 8 4 5 8 -3 5 4 18 14 30 11 12 20 26 20 32 0 20 16 10
26 -17 8 -24 9 -21 9 20 0 41 -2 45 -13 30 -11 -15 -14 -16 -22 -3 -13 21 6
51 28 43 22 -9 32 -23 32 -50 0 -13 5 -23 10 -23 11 0 13 11 10 50 -1 23 -1
24 12 7 13 -18 15 -17 28 8 7 14 19 24 26 21 6 -2 17 1 24 7 9 9 11 7 8 -12
-2 -14 3 -26 11 -29 8 -3 11 0 7 6 -4 6 2 8 14 5 21 -6 80 14 92 31 4 6 12 5
22 -3 23 -19 20 -33 -6 -25 -22 6 -22 6 -3 -12 17 -17 17 -19 2 -22 -13 -3
-15 -8 -7 -21 11 -21 58 -20 71 1 5 7 16 13 26 13 10 0 17 6 15 15 -2 12 1 11
11 -2 13 -16 15 -16 27 6 14 26 49 41 64 26 5 -5 22 2 43 17 19 14 33 20 31
13 -2 -7 3 -15 10 -17 9 -4 11 4 7 26 -5 32 8 43 19 16 3 -8 15 -15 28 -15 21
0 21 1 3 13 -14 11 -15 16 -5 22 7 4 16 2 21 -6 7 -11 9 -11 9 3 0 9 -5 18
-12 20 -8 3 -8 9 1 24 10 15 11 15 7 2 -7 -23 10 -23 22 -2 5 9 15 14 21 10 6
-4 9 -12 6 -17 -4 -5 -4 -9 -1 -9 2 0 12 -3 21 -7 14 -5 16 -2 10 15 -7 23 10
32 18 10 2 -7 8 -9 13 -5 5 4 2 12 -6 17 -11 7 -12 11 0 25 7 9 19 14 27 11
16 -6 43 3 43 15 0 4 -7 6 -15 3 -8 -4 -15 -1 -15 6 0 6 -4 9 -9 6 -5 -4 -6 4
-3 16 4 15 7 18 9 8 2 -9 32 -25 71 -37z m3316 -2038 c3 -9 18 -15 37 -15 27
0 30 -2 19 -15 -10 -12 -9 -16 4 -21 20 -8 21 -24 1 -24 -8 0 -15 -4 -15 -10
0 -5 5 -9 11 -7 6 1 14 -4 16 -10 3 -7 -1 -13 -7 -13 -7 0 -9 -9 -6 -22 3 -13
3 -17 0 -10 -7 16 -24 6 -24 -15 0 -8 6 -13 13 -10 32 12 36 -10 6 -35 l-30
-27 -10 27 c-6 15 -16 39 -23 53 -11 22 -11 28 3 37 9 7 12 11 6 11 -33 -4
-43 2 -38 21 3 11 9 20 14 20 5 0 9 4 9 10 0 5 -7 7 -15 4 -8 -4 -15 -1 -15 5
0 6 14 11 31 11 17 0 28 4 24 10 -3 5 -12 7 -19 4 -8 -3 -16 4 -19 15 -6 24
18 29 27 6z m-5080 -613 c3 -5 25 -6 48 -3 24 4 54 6 68 5 14 -1 89 -5 168 -8
78 -4 168 -13 198 -21 31 -8 60 -12 65 -10 4 3 10 1 14 -4 3 -6 12 -8 19 -5 7
3 19 -2 26 -11 8 -10 16 -12 20 -6 4 7 20 4 45 -9 21 -11 42 -17 47 -14 5 3
12 -3 15 -15 3 -12 10 -21 15 -21 5 0 6 -5 2 -11 -4 -8 1 -9 16 -4 16 5 20 4
15 -4 -4 -7 -2 -17 3 -24 8 -9 -4 -12 -49 -14 -32 -1 -64 -5 -71 -9 -7 -4 -30
-7 -52 -5 -21 1 -42 -2 -45 -7 -4 -6 -65 -13 -136 -16 -72 -3 -170 -8 -220
-11 -49 -3 -137 -8 -195 -11 -58 -3 -123 -7 -145 -9 -169 -16 -213 -17 -235
-5 -18 10 -20 14 -9 21 11 7 11 9 1 9 -21 0 49 52 148 112 14 8 45 21 70 28
28 8 59 28 80 51 34 36 63 48 74 31z m5584 -137 c-1 -17 4 -46 10 -65 37 -120
30 -431 -19 -845 -17 -148 -64 -383 -74 -373 -4 4 7 75 25 163 17 80 24 140
50 445 11 133 14 406 6 498 -7 65 -29 173 -40 190 -3 6 1 18 10 27 21 21 34 5
32 -40z m-1697 -58 c10 10 16 10 27 1 10 -9 15 -9 22 1 5 9 10 10 14 2 4 -6
16 -16 28 -22 18 -10 19 -8 14 13 -3 12 -3 17 0 11 3 -7 12 -13 20 -13 8 0 14
-4 14 -10 0 -5 9 -10 20 -10 11 0 20 6 20 14 0 7 9 16 20 19 11 3 18 1 14 -4
-3 -5 2 -9 10 -9 9 0 16 -5 16 -11 0 -6 -9 -8 -21 -4 -15 5 -19 4 -14 -5 4 -7
17 -9 31 -6 32 8 30 -5 -3 -26 -26 -16 -27 -17 -6 -18 27 0 34 -10 26 -39 -4
-16 -8 -19 -14 -10 -6 11 -11 10 -26 -2 -15 -13 -32 -15 -98 -8 -44 4 -100 5
-124 1 l-44 -5 7 62 c9 78 16 98 27 79 6 -10 11 -10 20 -1z m-1356 -77 c0 -19
-7 -27 -30 -34 -30 -9 -65 -59 -65 -92 0 -10 6 -13 18 -10 9 3 44 6 77 7 62 2
94 12 108 35 8 14 37 20 37 7 0 -3 -19 -24 -42 -45 -24 -22 -44 -44 -44 -49
-1 -5 -2 -10 -4 -11 -1 -2 -3 -16 -6 -33 -6 -51 -10 -66 -16 -63 -3 2 -15 -5
-26 -15 -15 -14 -23 -37 -27 -83 -4 -35 -11 -64 -15 -64 -4 0 -19 12 -34 27
-21 21 -26 35 -24 65 3 64 -39 69 -99 14 -23 -21 -35 -24 -87 -22 -34 1 -83
-2 -111 -6 -72 -12 -295 -12 -326 0 -20 8 -30 7 -42 -5 -19 -19 -57 -9 -57 16
0 10 -12 28 -26 42 -14 13 -32 36 -40 52 -14 26 -13 29 13 53 19 18 37 24 62
23 60 -3 70 0 93 26 24 28 59 33 78 10 19 -22 4 -61 -35 -90 -29 -22 -41 -26
-73 -20 -34 5 -39 4 -50 -20 -17 -38 -15 -48 7 -35 29 15 98 12 132 -5 28 -15
30 -15 39 10 6 15 10 39 10 55 0 48 38 58 235 64 101 3 122 -5 130 -55 4 -22
11 -41 16 -44 4 -3 25 5 46 19 21 14 52 28 68 31 56 12 58 14 45 30 -8 10 -25
13 -57 10 -43 -5 -94 12 -108 36 -4 5 12 28 36 50 34 31 40 42 30 49 -8 4 -21
5 -30 0 -116 -57 -180 -85 -201 -87 -14 -2 -29 -3 -35 -4 -30 -2 -131 14 -136
22 -14 23 -112 26 -145 4 -27 -17 -64 -20 -64 -4 0 7 -47 9 -147 7 -117 -2
-155 -7 -182 -20 -52 -27 -68 -23 -75 17 -4 20 -11 33 -16 30 -5 -3 -7 -12 -3
-20 4 -11 0 -14 -13 -9 -11 4 -23 10 -29 14 -5 4 -24 11 -42 14 -17 4 -37 14
-43 21 -18 21 -3 55 25 55 13 0 25 5 27 12 3 9 33 7 119 -8 97 -16 154 -18
389 -16 151 2 292 6 313 9 27 4 37 2 37 -8 0 -11 16 -14 63 -13 50 0 74 7 117
30 38 20 55 25 58 16 5 -16 32 -15 32 2 0 8 19 17 53 23 80 14 92 12 92 -17z
m3305 -77 c0 -5 -9 -23 -21 -42 -11 -19 -40 -91 -64 -160 -72 -208 -99 -277
-103 -259 -8 39 40 272 68 334 32 71 120 164 120 127z m-5375 -56 c39 0 78 4
89 8 11 5 21 3 27 -6 7 -11 9 -11 9 -1 0 15 72 15 102 0 10 -5 18 -3 21 5 3 9
13 8 41 -6 21 -9 41 -15 46 -12 5 3 12 0 16 -6 4 -8 9 -8 13 -1 4 6 12 7 20 3
10 -7 8 -14 -10 -32 -23 -23 -36 -55 -18 -43 5 3 9 -10 9 -28 l0 -33 -18 23
c-17 22 -65 35 -165 45 -16 2 -32 9 -36 16 -6 9 -17 4 -40 -19 -17 -17 -31
-36 -31 -41 0 -17 -21 2 -30 27 -9 23 -32 30 -84 25 -10 0 -24 3 -30 8 -17 14
-178 21 -193 9 -7 -6 -18 -6 -30 0 -10 5 -37 8 -61 6 -36 -3 -43 0 -40 14 2
11 15 17 38 19 40 4 75 9 75 12 0 1 33 4 73 6 41 2 76 6 79 9 3 3 18 3 32 -1
14 -4 58 -6 96 -6z m710 -39 c6 -6 3 -7 -10 -3 -16 5 -17 5 -5 -3 10 -8 18 -8
27 0 9 7 13 7 13 0 0 -6 3 -18 6 -26 5 -12 2 -15 -10 -10 -11 4 -16 1 -16 -11
0 -12 -5 -15 -19 -10 -13 4 -34 -5 -63 -26 -24 -18 -35 -29 -24 -25 15 5 17 3
12 -16 -3 -13 -6 -31 -6 -40 0 -11 -8 -18 -20 -18 -14 0 -22 10 -30 43 -10 43
-37 131 -47 156 -4 11 11 12 88 6 52 -4 99 -11 104 -17z m302 -56 c41 -16 47
-26 46 -69 -1 -7 3 -13 7 -13 15 0 17 -62 2 -67 -12 -5 -12 -7 2 -15 9 -5 14
-13 11 -19 -4 -5 1 -12 9 -15 9 -3 13 -10 10 -15 -3 -5 6 -9 21 -9 22 0 24 -3
16 -19 -8 -14 -7 -22 3 -30 20 -17 24 0 19 104 l-4 90 26 -59 c14 -33 25 -75
25 -94 0 -52 -49 -418 -60 -444 -12 -30 -12 -16 0 57 13 84 20 299 10 315 -7
11 -11 11 -24 1 -17 -14 -79 -8 -84 8 -2 6 -10 11 -18 11 -8 0 -24 10 -36 22
-14 14 -23 18 -26 10 -2 -7 -12 -12 -23 -12 -10 0 -19 -4 -19 -10 0 -19 -21
-10 -30 13 -5 12 -9 16 -9 7 -1 -8 -8 -2 -16 14 -19 36 -12 60 15 53 11 -3 20
-1 20 5 0 5 6 6 13 1 12 -7 31 -7 73 2 30 7 50 56 33 82 -13 22 -60 49 -102
59 -26 6 -47 30 -47 54 0 16 79 5 137 -18z m1141 -260 c28 -139 113 -425 142
-474 5 -9 13 -36 16 -60 4 -24 18 -65 31 -91 13 -27 22 -51 20 -54 -3 -2 -16
17 -30 44 -14 26 -34 66 -46 88 -70 135 -142 327 -161 430 -7 39 -16 81 -20
95 -4 14 -8 61 -9 105 -1 43 -5 83 -8 88 -3 5 4 4 15 -2 16 -8 25 -40 50 -169z
m-1736 109 c2 -6 16 -12 33 -15 30 -6 55 -29 55 -53 0 -7 9 -17 21 -23 16 -9
24 -8 38 4 10 9 23 16 29 16 7 0 12 6 12 13 0 9 2 9 8 0 4 -6 19 -14 34 -18
16 -4 25 -12 22 -20 -3 -7 0 -16 7 -21 7 -4 10 -3 5 4 -3 6 -2 13 4 17 5 3 14
-5 20 -19 6 -17 17 -26 31 -26 18 0 20 -4 14 -27 -9 -37 -23 -53 -47 -53 -25
0 -46 -21 -40 -39 3 -9 0 -11 -9 -6 -8 5 -5 -1 5 -13 11 -12 14 -22 8 -22 -7
0 -12 -8 -13 -17 0 -10 -3 -13 -5 -7 -3 7 -13 10 -23 7 -20 -5 -58 26 -43 36
19 12 23 49 7 65 -23 22 -42 20 -68 -8 -54 -59 -62 -81 -46 -122 7 -16 12 -53
13 -82 1 -31 6 -56 14 -61 7 -4 10 -15 6 -25 -5 -14 -9 -15 -15 -4 -6 9 -9 9
-9 1 0 -22 19 -24 30 -3 10 19 13 19 33 5 25 -18 41 -20 31 -3 -4 7 -3 8 5 4
6 -4 18 -2 26 4 12 10 15 9 16 -6 0 -11 3 -14 6 -6 7 19 23 14 23 -7 0 -24 25
-34 40 -15 7 8 21 14 32 14 15 0 18 5 13 20 -4 14 -2 20 7 18 8 -2 14 9 16 30
2 18 -1 32 -7 32 -6 0 -11 10 -11 22 0 20 -1 20 -12 5 -12 -15 -14 -15 -24 7
-6 13 -8 29 -5 35 6 9 16 12 61 20 3 1 0 5 -7 9 -27 17 48 62 87 53 20 -6 26
-14 28 -43 3 -38 -21 -98 -39 -98 -6 0 -9 -7 -5 -15 3 -8 0 -14 -7 -12 -7 1
-11 -7 -10 -20 2 -15 -3 -23 -13 -23 -11 0 -13 -6 -9 -20 4 -12 3 -26 -2 -33
-18 -24 -54 -127 -49 -136 3 -5 -3 -7 -14 -4 -18 5 -20 0 -20 -41 0 -29 4 -45
10 -41 6 3 10 1 10 -4 0 -6 -6 -12 -12 -12 -7 -1 1 -4 17 -8 32 -7 50 6 35 24
-10 12 0 15 48 16 18 1 21 5 17 20 -4 11 -2 19 4 19 6 0 11 -9 11 -21 0 -14 5
-19 14 -16 7 3 21 -4 30 -15 10 -11 20 -17 24 -13 3 3 0 10 -7 14 -24 15 -3
30 28 21 16 -4 32 -6 35 -3 10 10 -3 -96 -14 -116 -5 -11 -10 -29 -10 -40 0
-12 -4 -21 -10 -21 -5 0 -10 -9 -10 -20 0 -11 -4 -20 -10 -20 -5 0 -7 -8 -4
-17 5 -15 4 -15 -4 -3 -9 12 -14 11 -33 -5 -13 -12 -19 -14 -14 -5 5 8 17 21
27 28 29 21 21 31 -23 29 -31 -1 -39 -5 -36 -17 3 -12 -5 -15 -37 -15 -25 0
-41 -5 -41 -12 0 -6 -3 -15 -7 -19 -12 -11 -10 -19 11 -42 10 -12 26 -22 35
-22 15 0 23 -34 16 -65 -5 -21 -7 -40 -3 -29 5 15 43 25 43 12 0 -6 -8 -16
-17 -23 -11 -8 -17 -27 -17 -53 -1 -22 -4 -38 -8 -35 -5 2 -8 -5 -8 -16 0 -12
5 -21 10 -21 6 0 10 -5 10 -11 0 -5 -4 -8 -9 -5 -5 3 -11 -1 -15 -9 -3 -8 -2
-15 3 -15 4 0 6 -13 3 -30 -5 -36 4 -38 35 -8 13 12 23 16 23 10 0 -7 -4 -12
-8 -12 -5 0 -15 -19 -23 -42 -12 -38 -86 -124 -140 -164 -93 -68 -330 -141
-519 -160 -25 -2 -83 -9 -130 -14 -151 -18 -181 -20 -470 -26 -261 -6 -373 -2
-530 21 -59 8 -194 60 -225 86 -16 13 -62 56 -102 95 -74 72 -109 133 -119
208 -2 16 -8 34 -14 40 -5 5 -10 18 -10 27 0 10 -6 30 -14 46 -37 76 -55 127
-80 228 -15 61 -34 133 -42 160 -12 43 -38 162 -74 339 -18 85 -24 308 -11
362 11 45 53 104 73 104 5 0 27 12 49 26 22 14 46 23 52 20 7 -2 4 -5 -5 -5
-10 -1 -18 -4 -18 -8 0 -5 -18 -27 -40 -51 -57 -61 -65 -102 -51 -265 11 -129
63 -413 78 -428 4 -4 45 -13 91 -18 46 -6 88 -13 93 -16 5 -4 16 -23 24 -42 9
-20 18 -33 21 -30 3 3 5 67 5 141 -2 130 -1 136 19 136 14 0 20 -7 20 -21 0
-26 26 -53 42 -43 8 5 9 2 5 -11 -6 -15 -3 -17 25 -11 30 6 31 5 13 -9 -13 -9
-14 -13 -4 -10 24 9 71 -57 50 -70 -8 -4 -3 -95 6 -105 2 -2 9 2 14 10 8 11 9
9 4 -9 -5 -16 -4 -21 4 -17 6 4 12 17 12 29 1 16 2 18 6 5 7 -27 42 -33 63
-10 11 11 33 23 50 27 28 6 43 25 19 25 -6 0 1 20 14 45 19 34 22 45 11 45 -8
0 -14 5 -14 10 0 6 -7 10 -15 10 -8 0 -15 4 -15 10 0 5 -13 7 -30 4 -20 -5
-30 -3 -30 6 0 7 -8 10 -20 7 -11 -3 -23 -1 -26 4 -3 6 -12 5 -22 -3 -13 -11
-14 -11 -8 1 7 10 3 12 -13 6 -17 -5 -21 -3 -18 14 2 11 6 24 10 27 4 4 -4 17
-18 30 -25 23 -16 46 10 24 11 -9 12 -7 8 10 -4 15 -11 19 -27 15 -11 -2 -15
-2 -8 1 6 3 10 10 6 15 -3 5 -1 9 5 9 5 0 12 21 16 48 3 26 10 62 14 80 6 19
5 32 0 32 -5 0 -9 9 -9 20 0 11 6 19 13 17 7 -1 12 7 11 21 -1 12 4 22 12 22
9 0 14 11 14 30 0 17 5 30 10 30 6 0 10 9 10 20 0 24 22 35 47 26 15 -6 15 -8
3 -17 -11 -8 -7 -9 15 -4 28 6 28 5 11 -8 -13 -9 -15 -16 -8 -21 7 -4 8 -15 2
-30 -9 -24 -5 -36 12 -36 5 0 6 5 3 10 -3 6 -1 10 4 10 6 0 11 -7 11 -15 0 -8
-6 -15 -12 -15 -10 0 -9 -3 1 -9 7 -5 10 -14 7 -20 -4 -6 -2 -11 3 -11 6 0 11
-6 11 -14 0 -7 7 -19 15 -26 9 -7 13 -15 10 -18 -2 -3 7 -11 22 -19 21 -11 28
-11 35 -1 6 10 10 7 14 -9 4 -13 11 -20 20 -16 11 4 14 -5 14 -40 0 -25 5 -49
10 -52 7 -4 6 -13 -1 -27 -6 -11 -9 -28 -6 -39 3 -10 0 -20 -7 -23 -6 -2 -3
-5 8 -5 14 -1 17 -7 14 -26 -3 -14 -1 -25 3 -25 5 0 9 7 9 15 0 8 4 15 8 15 4
0 6 -16 4 -37 -4 -30 -2 -35 12 -30 10 4 16 1 16 -7 0 -7 8 -20 17 -27 15 -12
16 -12 10 4 -3 9 -2 17 3 17 6 0 10 -7 10 -15 0 -9 6 -12 15 -9 8 4 15 2 15
-3 0 -5 16 -9 35 -9 29 1 35 5 35 24 0 13 6 22 15 22 8 0 15 9 15 21 0 11 4
17 10 14 5 -3 7 0 5 8 -5 12 28 52 44 52 3 0 5 3 4 7 -2 4 8 10 22 14 23 6 29
14 26 39 0 6 17 10 39 10 34 0 40 3 40 20 0 16 7 20 36 21 20 0 40 7 45 15 7
11 9 11 9 1 0 -7 4 -10 10 -7 6 4 3 17 -7 33 -17 26 -17 26 0 13 9 -7 26 -11
37 -8 15 4 21 1 19 -11 -3 -33 1 -39 31 -39 24 0 27 3 19 14 -14 16 -5 17 22
2 19 -9 19 -9 10 10 -9 16 -8 20 6 19 10 0 26 3 36 7 13 5 16 3 12 -8 -4 -8 1
-17 12 -21 10 -3 24 -9 32 -12 10 -5 13 1 9 24 -2 17 -1 29 4 26 4 -3 8 4 8
15 0 12 -5 21 -11 21 -5 0 -7 6 -4 13 4 6 0 4 -8 -5 -8 -10 -22 -18 -32 -18
-10 0 -24 -8 -31 -17 -9 -11 -17 -14 -21 -8 -5 6 -15 10 -23 10 -8 0 -14 6
-12 14 2 11 -2 10 -22 -3 -31 -20 -42 -21 -26 -1 7 8 9 15 4 15 -5 0 -20 9
-34 19 -21 16 -22 21 -11 35 12 14 12 16 0 11 -9 -3 -21 8 -34 32 -11 21 -39
57 -61 81 -50 51 -73 132 -39 132 8 0 15 5 15 10 0 6 21 20 48 33 26 12 49 25
52 29 3 3 13 8 24 10 18 3 26 -12 28 -52 0 -8 4 -19 8 -25 10 -13 31 -78 27
-86 -5 -12 138 -129 158 -129 12 0 26 -5 32 -11 16 -16 135 -16 169 0 73 34
92 46 131 84 23 22 45 52 48 66 3 14 7 37 10 51 3 14 10 37 16 52 6 15 9 43 7
63 -3 28 -1 35 13 35 10 0 19 -4 21 -9z"/>
<path d="M9238 8247 c-21 -12 -42 -34 -47 -49 -6 -16 -21 -33 -35 -40 -15 -6
-26 -16 -26 -21 0 -5 -10 -7 -22 -4 -49 13 -77 -33 -40 -66 27 -24 51 -21 62
8 5 14 15 25 21 25 7 0 10 3 6 6 -10 10 22 36 34 28 8 -4 9 -3 5 4 -4 7 -3 12
3 12 5 0 17 3 27 7 13 5 16 3 11 -10 -7 -20 4 -22 21 -5 9 9 12 9 12 0 0 -7 7
-12 16 -12 11 0 14 -5 10 -16 -3 -9 -6 -20 -6 -25 0 -6 -4 -8 -9 -5 -8 6 5
-83 14 -92 3 -3 10 8 15 24 8 22 24 35 68 54 67 29 82 41 82 70 0 12 5 30 11
42 11 21 3 40 -9 21 -11 -17 -124 -7 -138 12 -6 8 -14 15 -18 15 -12 0 -35 27
-29 34 11 11 -1 6 -39 -17z"/>
<path d="M9287 7915 c-45 -93 -39 -102 103 -144 43 -14 56 -22 60 -41 6 -24 6
-24 17 -5 10 17 15 18 32 8 29 -18 45 -8 59 37 14 47 15 70 3 89 -8 12 -14 9
-35 -16 -25 -30 -74 -42 -100 -25 -6 4 -31 8 -55 9 -59 2 -69 14 -42 52 13 18
20 42 19 60 -4 49 -30 38 -61 -24z"/>
<path d="M7918 5812 c-24 -14 -43 -26 -44 -26 -8 -7 -11 -66 -3 -66 6 0 7 5 3
12 -4 7 -3 8 4 4 7 -4 12 -14 12 -22 0 -18 8 -18 42 0 24 13 28 12 47 -10 11
-13 26 -24 32 -24 6 0 9 -7 5 -15 -7 -19 40 -16 70 5 47 33 -8 133 -86 156
-35 10 -43 9 -82 -14z"/>
<path d="M7720 5625 c0 -17 5 -36 12 -43 7 -7 9 -12 4 -12 -4 0 0 -7 8 -16 9
-8 16 -24 16 -35 0 -19 20 -25 78 -21 12 0 22 -3 22 -9 0 -5 5 -9 11 -9 5 0 7
6 3 13 -5 8 -4 9 3 2 6 -5 8 -27 6 -47 -4 -29 -9 -35 -22 -31 -9 4 -13 3 -9
-1 11 -13 -59 -76 -84 -76 -13 0 -29 -5 -35 -11 -11 -11 -80 -16 -89 -6 -3 3
10 21 30 41 39 41 41 72 3 53 -57 -30 -121 -83 -122 -101 -1 -12 -14 -63 -22
-86 -3 -8 -6 -31 -8 -50 -1 -19 -7 -36 -14 -38 -6 -2 -9 -7 -6 -12 7 -11 -15
-60 -27 -60 -5 0 -6 5 -3 10 3 6 1 10 -4 10 -6 0 -11 -7 -11 -15 0 -8 5 -15
10 -15 6 0 10 -5 10 -11 0 -8 -5 -7 -16 2 -12 10 -15 25 -11 55 2 23 1 47 -2
53 -7 11 -34 -43 -45 -91 -9 -41 -97 -78 -109 -45 -3 9 -9 8 -22 -4 -12 -12
-25 -15 -44 -9 -20 5 -33 3 -49 -10 -12 -10 -22 -21 -22 -24 0 -12 -52 -56
-60 -51 -5 3 -7 19 -3 35 3 17 3 30 0 30 -15 0 -75 -31 -87 -44 -7 -9 -20 -16
-29 -16 -14 1 -14 2 2 14 10 8 15 16 10 19 -4 2 -18 -6 -31 -19 -12 -13 -20
-24 -16 -24 4 0 -2 -10 -14 -22 -11 -13 -20 -27 -20 -33 0 -5 -9 -14 -21 -20
-11 -5 -21 -13 -21 -17 0 -4 -11 -19 -25 -34 -14 -15 -25 -31 -25 -36 0 -10
-36 -62 -68 -98 -12 -14 -25 -42 -28 -62 -4 -21 -11 -38 -16 -38 -5 0 -7 -4
-3 -9 3 -5 -2 -16 -10 -24 -8 -9 -15 -23 -15 -33 0 -9 -11 -27 -25 -40 -24
-22 -34 -41 -17 -30 4 2 8 -11 9 -30 0 -18 -3 -32 -7 -29 -4 2 -6 -9 -5 -25 1
-18 -6 -36 -17 -46 -10 -10 -18 -25 -18 -36 0 -10 -6 -18 -12 -18 -9 0 -9 -3
1 -9 12 -8 12 -12 2 -25 -8 -9 -11 -16 -7 -16 4 0 0 -13 -9 -30 -18 -35 -21
-74 -4 -50 9 12 9 11 4 -5 -4 -11 -9 -37 -11 -58 -2 -20 -8 -46 -13 -56 -13
-23 17 -55 43 -45 11 4 16 1 16 -10 0 -9 9 -25 20 -36 11 -11 20 -22 20 -25 0
-3 11 -23 25 -45 29 -45 30 -50 13 -50 -7 0 -23 -11 -36 -24 -17 -18 -21 -32
-17 -53 5 -24 4 -25 -4 -7 -14 33 -35 42 -26 13 7 -23 6 -23 -11 -6 -16 15
-17 20 -5 38 9 16 10 24 1 33 -8 8 -12 5 -16 -12 -7 -26 -22 -29 -31 -6 -3 8
-12 13 -19 10 -8 -3 -14 0 -14 6 0 6 -8 17 -17 24 -11 8 -13 13 -5 14 6 0 12
11 12 24 0 19 -4 23 -20 19 -11 -3 -26 0 -34 6 -11 9 -18 8 -30 -4 -15 -15
-16 -15 -16 4 0 14 -5 19 -15 15 -18 -7 -20 12 -2 19 14 6 -30 46 -50 47 -7 0
-13 5 -13 10 0 6 -8 10 -17 10 -15 0 -15 2 -4 9 30 19 -7 49 -51 42 -5 0 -8 8
-8 19 0 10 -8 23 -17 29 -17 9 -17 10 0 16 9 4 17 11 17 16 0 4 -6 6 -14 3
-22 -9 -28 13 -9 32 13 12 14 19 5 22 -6 2 -12 11 -12 20 0 14 -2 14 -9 3 -6
-8 -14 -10 -22 -5 -8 5 -24 7 -36 5 -18 -2 -22 1 -16 15 5 13 3 16 -10 11 -11
-4 -23 3 -36 21 -16 22 -22 25 -32 15 -18 -18 -32 -16 -25 2 3 8 1 15 -3 15
-5 0 -11 -6 -14 -12 -2 -7 -8 -10 -12 -6 -4 4 -3 14 4 21 14 17 4 47 -14 47
-8 0 -17 9 -20 21 -5 16 -12 19 -32 14 -18 -4 -24 -2 -21 7 3 7 -2 19 -11 26
-14 11 -14 11 2 6 16 -6 16 -4 6 20 -7 14 -19 26 -26 26 -19 0 -39 20 -48 49
-6 18 -9 21 -16 10 -6 -10 -9 -3 -9 21 0 23 3 30 9 22 7 -11 10 -10 15 3 3 9
6 24 6 33 0 13 -3 12 -15 -4 -14 -18 -14 -18 -15 9 0 15 -9 36 -20 47 -11 11
-20 24 -20 29 0 5 -7 12 -16 15 -21 8 -26 8 -20 -3 7 -11 -22 -36 -31 -27 -3
3 -1 6 7 6 10 0 10 3 0 15 -6 8 -9 18 -6 23 3 5 -4 16 -14 25 -18 15 -19 14
-25 -14 -8 -37 -25 -44 -165 -70 -58 -11 -141 -29 -185 -39 -44 -11 -105 -24
-135 -30 -30 -6 -82 -17 -115 -24 -120 -28 -253 -55 -385 -76 -74 -12 -139
-26 -144 -31 -6 -5 -20 -9 -33 -9 -63 0 -434 -98 -573 -151 -330 -127 -549
-246 -807 -438 -33 -25 -74 -55 -89 -66 -15 -11 -45 -35 -67 -53 -22 -18 -48
-37 -57 -42 -10 -5 -57 -56 -106 -112 -49 -57 -93 -108 -99 -114 -5 -6 -32
-38 -60 -69 -27 -32 -70 -81 -95 -109 -55 -61 -187 -219 -215 -257 -11 -15
-56 -73 -100 -130 -106 -137 -184 -246 -380 -539 -90 -135 -181 -271 -203
-302 -21 -31 -49 -71 -60 -90 -37 -57 -45 -70 -127 -193 -141 -211 -209 -325
-294 -492 -23 -44 -59 -101 -80 -125 -93 -107 -202 -296 -233 -403 -7 -22 -31
-77 -54 -122 -23 -46 -40 -91 -37 -101 3 -11 -9 -35 -31 -61 -47 -56 -90 -150
-80 -176 4 -8 1 -15 -5 -15 -12 0 -61 -69 -61 -87 0 -17 89 -103 106 -103 7 0
21 -11 32 -25 l20 -25 8091 0 8091 0 0 718 0 718 -47 36 c-27 19 -63 43 -80
52 -18 9 -33 21 -33 26 0 5 -14 17 -32 26 -17 9 -36 20 -42 25 -29 24 -225
149 -234 149 -5 0 -15 7 -22 15 -12 15 -108 80 -185 125 -22 13 -41 28 -43 32
-2 4 -9 8 -16 8 -7 0 -21 9 -31 20 -10 11 -21 20 -25 20 -8 0 -288 186 -360
240 -31 23 -205 138 -251 165 -52 31 -60 37 -123 85 -32 25 -71 52 -86 62 -23
14 -102 70 -135 96 -6 5 -44 32 -85 60 -148 103 -165 115 -177 131 -7 9 -13
13 -13 9 0 -5 -27 11 -59 35 -88 63 -206 142 -291 195 -41 26 -84 55 -94 64
-11 10 -26 18 -33 18 -7 0 -13 5 -13 10 0 6 -6 10 -13 10 -8 0 -24 11 -37 25
-13 14 -30 25 -37 25 -8 0 -29 11 -47 25 -18 14 -37 25 -41 25 -4 0 -23 11
-41 25 -18 14 -35 25 -38 25 -3 0 -26 16 -52 35 -25 19 -50 35 -55 35 -5 0
-37 23 -71 50 -34 27 -66 50 -70 50 -5 0 -36 18 -69 40 -33 22 -65 40 -70 40
-5 0 -9 4 -9 8 0 11 -163 110 -250 151 -25 11 -52 25 -60 29 -104 59 -255 132
-272 132 -10 0 -18 4 -18 9 0 5 -10 13 -22 16 -20 6 -190 85 -253 118 -11 6
-42 22 -70 35 -27 13 -72 39 -100 56 -27 17 -59 36 -70 43 -82 48 -191 118
-193 125 -2 4 -8 8 -14 8 -6 0 -57 27 -115 60 -57 33 -108 60 -113 60 -4 0
-10 3 -12 8 -2 4 -23 17 -48 30 -25 12 -58 31 -75 42 -65 42 -453 240 -470
240 -6 0 -31 13 -56 29 -24 16 -58 32 -76 36 -29 6 -32 4 -41 -27 -6 -18 -24
-76 -40 -128 -17 -52 -33 -110 -37 -128 -6 -30 -54 -140 -118 -272 -19 -40
-22 -60 -20 -169 1 -79 -2 -120 -8 -110 -6 10 -9 6 -10 -16 -4 -70 -8 -102
-17 -135 -6 -19 -18 -78 -27 -130 -9 -52 -21 -99 -25 -105 -4 -5 -11 -26 -16
-45 -10 -45 -8 -39 -27 -82 -10 -21 -17 -48 -17 -62 0 -13 -3 -32 -6 -41 -6
-13 -9 -14 -16 -3 -7 10 -8 8 -4 -5 3 -10 -4 -37 -15 -59 -16 -32 -23 -38 -31
-27 -7 10 -7 7 -3 -9 5 -16 1 -31 -12 -45 -10 -12 -27 -38 -37 -57 -11 -19
-23 -37 -26 -40 -4 -3 -17 -24 -28 -47 -41 -79 -138 -223 -147 -216 -4 5 -5 3
-2 -3 4 -7 0 -18 -9 -25 -8 -7 -25 -31 -36 -53 -26 -52 -48 -77 -61 -69 -5 3
-7 2 -4 -4 3 -5 -5 -21 -19 -36 -13 -14 -24 -30 -24 -34 0 -4 -15 -24 -33 -43
-18 -19 -39 -44 -47 -56 -68 -96 -306 -338 -420 -424 -25 -19 -47 -37 -50 -40
-9 -10 -158 -124 -195 -150 -20 -14 -55 -38 -78 -55 -23 -16 -55 -37 -72 -45
-16 -8 -43 -23 -60 -35 -16 -11 -40 -25 -52 -32 -12 -6 -50 -26 -85 -44 -35
-18 -70 -38 -78 -45 -8 -6 -33 -17 -55 -24 -22 -7 -49 -19 -61 -26 -11 -8 -45
-22 -75 -33 -29 -10 -83 -32 -119 -49 -36 -16 -95 -38 -130 -47 -36 -10 -77
-24 -92 -32 -15 -7 -30 -13 -33 -13 -3 0 -6 0 -7 -1 -4 -1 -41 -8 -70 -13 -15
-2 -31 -7 -37 -10 -6 -4 -50 -16 -98 -27 -100 -23 -100 -23 -130 -33 -12 -4
-37 -9 -55 -11 -134 -17 -196 -27 -218 -37 -33 -14 -197 -37 -244 -34 -20 2
-38 0 -40 -3 -2 -3 -37 -5 -78 -4 -40 1 -109 2 -153 3 -76 2 -158 26 -176 52
-3 5 -22 9 -43 10 -27 1 -35 5 -32 15 4 8 1 11 -5 8 -6 -4 -17 1 -25 11 -15
18 -15 18 -10 1 3 -10 -14 2 -39 26 -25 25 -45 50 -45 56 0 6 -11 13 -25 17
-13 3 -27 16 -31 27 -3 12 -13 30 -21 39 -9 10 -15 29 -15 43 0 21 -4 25 -22
20 -17 -5 -18 -4 -5 4 15 10 15 14 1 46 -9 19 -22 35 -30 35 -7 0 -10 5 -7 11
4 6 -2 13 -14 16 -13 3 -21 14 -21 27 0 11 -7 29 -15 39 -7 11 -11 25 -8 32 2
8 -7 27 -21 42 -14 15 -26 37 -26 49 0 12 -14 37 -32 55 -18 19 -33 36 -33 39
-9 35 -61 121 -77 128 -5 2 -8 11 -8 21 0 9 -9 27 -20 39 -11 12 -20 26 -20
32 0 6 -7 18 -15 26 -8 9 -15 24 -15 33 0 10 -7 24 -15 31 -9 7 -13 21 -10 31
4 11 2 19 -4 19 -6 0 -8 7 -5 15 4 9 0 15 -9 15 -8 0 -17 9 -20 21 -3 12 -10
18 -17 14 -7 -4 -10 1 -9 17 3 32 -12 88 -23 88 -6 0 -8 12 -5 26 3 16 0 28
-9 31 -8 3 -14 12 -14 20 0 8 -7 22 -16 30 -11 11 -12 18 -4 23 8 5 3 17 -15
39 -15 18 -20 29 -12 25 12 -4 14 0 10 16 -3 12 -11 24 -18 26 -13 5 -14 61
-2 82 5 7 3 12 -6 12 -21 0 -28 25 -14 45 15 20 51 10 42 -12 -3 -11 -1 -13
10 -10 8 4 19 -1 24 -11 7 -11 11 -12 11 -4 0 7 4 11 10 7 5 -3 7 -11 4 -18
-2 -7 6 -17 18 -22 13 -6 22 -14 22 -20 -2 -16 29 -32 63 -33 32 -1 83 -27 83
-43 0 -5 8 -9 18 -9 9 0 28 -12 41 -25 13 -14 26 -23 29 -20 3 2 24 -10 46
-28 23 -18 58 -41 80 -52 21 -11 48 -30 59 -41 12 -12 27 -20 34 -17 9 4 11 0
7 -11 -4 -10 -1 -16 10 -17 33 -3 37 -4 44 -15 4 -7 26 -17 49 -23 23 -6 45
-16 48 -21 4 -6 11 -8 16 -5 5 4 9 2 9 -3 0 -6 15 -13 34 -16 19 -4 39 -13 46
-21 7 -8 23 -15 35 -15 12 0 33 -8 46 -19 13 -10 30 -16 38 -13 8 3 19 -1 25
-9 10 -13 18 -16 57 -24 25 -5 91 -17 114 -20 11 -2 20 -4 20 -5 0 -1 13 -4
29 -6 16 -2 61 -10 100 -18 241 -52 272 -56 501 -59 137 -2 228 8 365 40 36 8
100 21 144 29 43 8 86 18 95 23 9 5 52 21 96 35 44 15 94 33 110 40 17 8 57
26 90 40 87 39 152 72 303 154 74 39 137 72 140 72 3 0 13 6 21 14 9 7 36 24
61 37 25 13 68 41 97 61 29 21 55 38 57 38 6 0 25 15 81 63 18 15 35 27 38 27
2 0 27 20 53 45 27 25 53 45 57 45 5 0 14 6 21 13 7 6 28 23 46 37 104 78 311
283 383 380 26 36 57 78 70 94 12 16 24 34 26 39 2 6 23 37 46 68 23 31 47 71
54 88 8 17 17 31 22 31 5 0 18 19 30 43 12 23 25 44 29 47 16 12 28 68 17 79
-9 9 -8 14 3 21 18 11 13 16 -21 25 -23 6 -27 3 -33 -19 -5 -22 -11 -26 -38
-24 -28 3 -32 0 -40 -32 -11 -46 -29 -80 -38 -75 -12 8 -32 -23 -24 -36 5 -9
1 -10 -14 -7 -19 5 -21 3 -15 -19 4 -17 2 -24 -5 -19 -6 3 -13 -2 -15 -11 -4
-17 -5 -17 -6 0 -1 23 -24 22 -45 -2 -10 -11 -28 -22 -42 -25 -15 -4 -24 -14
-24 -25 0 -11 -3 -28 -6 -38 -4 -14 -1 -13 15 6 12 13 21 19 21 13 0 -14 -28
-42 -43 -44 -7 0 -16 -2 -22 -3 -5 -2 -16 -3 -22 -4 -7 0 -13 -9 -14 -18 0
-11 -3 -13 -6 -5 -2 6 -9 12 -15 12 -6 0 -8 -6 -5 -14 4 -9 -4 -16 -24 -20
-16 -3 -29 -12 -29 -20 0 -8 -4 -16 -8 -18 -13 -5 -24 -58 -12 -58 5 0 10 -7
10 -15 0 -8 -4 -15 -10 -15 -5 0 -10 -6 -10 -14 0 -8 -6 -17 -12 -19 -10 -4
-10 -6 0 -6 25 -2 11 -21 -15 -21 -20 0 -24 3 -16 11 8 8 9 20 2 36 -8 22 -7
25 10 20 16 -4 19 1 19 34 1 29 -3 39 -15 39 -12 0 -14 -7 -9 -31 6 -29 5 -30
-27 -27 -21 2 -31 -1 -30 -9 2 -7 -4 -10 -12 -7 -18 7 -20 -12 -2 -20 6 -3 -1
-3 -18 0 -18 3 -25 2 -18 -3 7 -5 10 -23 8 -42 -5 -36 -15 -55 -15 -28 0 10
-6 17 -12 18 -7 0 -29 2 -48 5 -28 3 -38 0 -48 -17 -7 -11 -11 -23 -8 -26 7
-7 -20 -33 -33 -33 -6 0 -11 -15 -11 -34 0 -37 -17 -50 -38 -29 -7 7 -23 13
-35 13 -19 0 -18 -3 11 -21 33 -22 43 -49 17 -49 -8 0 -15 -5 -15 -12 0 -9 -3
-9 -12 0 -10 10 -10 15 1 21 8 5 11 16 8 25 -9 23 -30 20 -22 -3 6 -20 -18
-46 -35 -36 -5 3 -10 2 -10 -4 0 -6 15 -15 33 -20 l32 -9 -30 -3 c-16 -1 -36
-2 -42 -2 -7 1 -13 -6 -13 -14 0 -12 -7 -14 -31 -9 -29 5 -31 4 -26 -16 4 -14
0 -29 -11 -41 -9 -11 -17 -22 -17 -26 0 -3 -6 -5 -14 -3 -10 3 -12 -3 -8 -17
3 -13 1 -21 -6 -19 -7 1 -24 -1 -39 -5 -20 -5 -26 -12 -21 -24 4 -11 3 -14 -6
-9 -6 4 -18 2 -26 -4 -8 -6 -19 -9 -26 -5 -6 4 -15 1 -20 -6 -13 -21 -11 -33
4 -22 19 16 65 24 72 13 4 -6 -7 -10 -27 -10 -19 0 -28 -3 -21 -8 7 -5 -4 -8
-27 -9 -43 -2 -80 -18 -80 -34 0 -15 -26 -39 -34 -32 -3 4 -6 1 -6 -5 0 -7 -7
-12 -15 -12 -10 0 -15 -10 -15 -26 0 -22 -2 -25 -15 -14 -8 7 -15 9 -15 4 0
-5 -5 -2 -11 6 -9 12 -10 11 -4 -5 7 -23 8 -25 6 -42 0 -7 -8 -13 -16 -13 -9
0 -18 -7 -21 -15 -8 -21 -41 -19 -55 4 -11 16 -15 17 -38 5 -19 -10 -27 -10
-32 -2 -5 8 -11 9 -21 1 -13 -10 -29 -13 -75 -14 -18 -1 -24 -9 -29 -36 -4
-24 -9 -31 -15 -22 -6 11 -9 10 -15 -4 -5 -14 -9 -15 -20 -6 -11 9 -14 8 -14
-6 0 -12 -6 -16 -20 -12 -12 3 -20 0 -20 -8 0 -13 -73 -26 -98 -17 -25 9 -5
27 27 24 25 -2 31 2 31 17 0 11 -4 23 -10 26 -5 3 -10 -1 -10 -9 0 -9 -7 -16
-15 -16 -10 0 -15 10 -15 26 0 22 -2 24 -14 14 -11 -8 -20 -9 -33 -1 -13 7
-14 10 -4 11 8 0 11 3 8 6 -9 9 -38 -16 -32 -26 3 -5 1 -11 -5 -15 -5 -3 -10
-1 -10 6 0 8 -4 8 -16 -2 -13 -10 -17 -10 -24 2 -8 11 -12 10 -25 -8 -9 -13
-22 -20 -30 -17 -8 4 -15 1 -15 -5 0 -6 -5 -11 -11 -11 -6 0 -9 7 -5 15 4 11
-2 15 -24 15 -17 0 -30 -4 -30 -10 0 -21 -18 -8 -31 22 -7 17 -15 26 -17 20
-2 -7 -7 -10 -10 -8 -4 2 -23 7 -44 10 -26 4 -38 2 -42 -9 -3 -8 -11 -15 -18
-15 -9 0 -9 3 2 10 11 8 6 9 -20 6 -56 -6 -94 -17 -114 -35 -18 -15 -19 -15
-13 2 8 22 -1 22 -25 0 -18 -16 -18 -16 -12 0 8 23 -2 21 -26 -3 -12 -12 -18
-25 -15 -30 4 -6 2 -10 -3 -10 -13 0 -22 39 -11 46 5 3 7 10 4 15 -4 5 -17 -3
-31 -18 -13 -14 -24 -23 -24 -19 0 4 -8 2 -18 -3 -13 -7 -23 -6 -32 2 -10 9
-14 9 -17 0 -3 -7 -9 -13 -14 -13 -4 0 -6 7 -2 16 5 13 2 15 -15 9 -21 -6 -28
6 -23 37 1 10 -32 -3 -41 -16 -6 -8 -8 -8 -8 0 0 6 -18 10 -41 10 -32 -1 -44
3 -51 19 -8 19 -8 19 -4 -2 4 -21 -20 -41 -33 -27 -3 4 0 9 7 11 6 3 12 8 12
12 0 8 -38 6 -84 -5 -21 -5 -31 -3 -38 10 -9 16 -39 22 -51 9 -11 -11 -67 -13
-67 -3 0 15 -30 12 -31 -2 0 -7 -4 -3 -9 10 -5 12 -7 28 -4 36 3 7 -2 16 -10
19 -9 4 -16 1 -17 -6 0 -7 -7 2 -14 18 -8 17 -14 25 -15 19 0 -7 -9 -14 -20
-17 -15 -4 -20 0 -20 16 -1 20 -2 20 -11 4 -12 -20 -31 -14 -23 8 4 8 -1 18
-10 21 -23 9 -20 24 7 25 12 0 16 3 9 6 -7 3 -27 0 -45 -6 -27 -9 -30 -9 -14
3 26 20 21 29 -13 23 -23 -5 -30 -3 -30 9 0 8 -4 13 -10 9 -16 -10 -76 28 -72
48 2 9 -2 17 -8 17 -7 0 -9 8 -5 20 3 11 2 20 -4 20 -5 0 -11 10 -13 23 -2 14
-11 23 -25 25 -17 3 -23 10 -23 28 0 21 -4 24 -32 23 -32 -2 -32 -2 -5 -6 17
-3 26 -9 23 -16 -3 -7 -9 -20 -12 -29 -9 -26 -21 -22 -29 9 l-6 26 -25 -26
c-14 -15 -23 -31 -20 -36 3 -5 -2 -12 -11 -15 -9 -4 -20 -2 -23 5 -6 8 -9 8
-15 0 -5 -9 -11 -9 -22 1 -13 11 -13 13 4 19 16 7 16 8 -4 15 -13 3 -23 14
-23 23 0 14 2 14 10 1 7 -11 10 -4 10 28 0 23 -4 42 -9 42 -14 0 -21 84 -8 92
9 6 9 8 0 8 -6 0 -19 7 -28 16 -12 12 -13 19 -4 30 6 8 15 12 19 9 16 -10 32
23 21 44 -9 16 -8 20 6 20 10 1 37 2 61 3 36 3 42 0 39 -14 -3 -9 2 -19 10
-23 12 -4 14 0 10 15 -3 12 5 34 19 55 13 19 18 34 12 32 -7 -1 -13 3 -13 8
-1 6 -5 18 -9 27 -7 15 -10 15 -22 4 -18 -19 -78 -14 -99 8 -9 9 -25 16 -35
16 -10 0 -22 5 -25 10 -3 6 -15 10 -26 10 -10 0 -19 6 -19 13 0 26 -25 67 -38
62 -7 -2 -15 2 -18 10 -4 8 -11 15 -16 15 -6 0 -17 8 -24 18 -12 15 -15 15
-24 2 -9 -12 -10 -9 -4 10 3 14 13 29 20 33 8 4 14 15 14 24 0 10 6 13 16 9
22 -8 40 4 23 15 -12 7 -12 11 -1 17 10 7 7 16 -14 42 -27 32 -27 32 -5 25 18
-6 22 -4 15 6 -6 12 -5 12 8 1 8 -6 33 -13 54 -15 21 -1 44 -6 50 -9 11 -7 44
25 44 43 0 7 6 6 17 -2 13 -11 17 -11 20 -1 7 19 43 15 43 -5 0 -13 3 -14 8
-6 9 14 73 12 106 -2 13 -6 21 -4 24 3 2 7 12 12 23 12 17 0 25 21 20 53 -1 7
15 9 92 11 24 1 43 8 51 19 7 9 23 17 35 17 13 0 21 6 21 16 0 11 6 15 20 11
11 -3 20 -1 20 4 0 5 15 9 34 9 19 0 37 6 39 13 4 10 6 10 6 0 1 -7 8 -13 16
-13 8 0 15 -7 15 -15 0 -8 4 -15 8 -15 12 0 42 56 42 80 0 15 5 20 14 17 11
-4 13 -1 9 11 -6 14 -4 15 9 5 8 -7 18 -10 21 -6 4 3 7 -2 7 -13 1 -18 2 -18
19 3 12 15 21 19 28 12 7 -7 18 -2 35 16 14 14 33 28 44 29 13 2 21 14 25 37
4 19 7 28 8 21 0 -7 6 -10 11 -7 6 4 7 11 4 17 -4 6 0 14 7 19 12 8 12 11 -1
19 -11 7 -1 10 36 10 37 0 54 4 58 15 3 8 11 15 17 15 7 0 21 7 31 17 16 14
18 14 18 1 0 -24 38 -29 77 -10 22 11 37 13 41 6 4 -6 15 -13 25 -17 9 -3 17
-16 17 -28 0 -16 3 -19 13 -12 19 16 70 22 89 12 10 -5 18 -19 18 -29 0 -23 4
-24 33 -8 25 14 43 17 149 19 63 1 80 -2 97 -18 13 -12 19 -27 16 -35 -10 -25
12 -31 47 -14 41 21 68 20 84 -1 10 -15 24 -17 77 -15 43 3 68 -1 78 -10 8 -7
28 -15 44 -17 17 -1 34 -6 39 -9 5 -3 34 -6 65 -7 31 -1 57 -7 59 -13 2 -7 10
-12 18 -12 8 0 14 -4 14 -8 0 -5 14 -9 32 -10 23 -1 40 -10 59 -31 31 -36 42
-38 92 -12 20 10 37 16 38 12 6 -55 27 -100 39 -81 6 10 13 9 32 -1 14 -8 45
-25 69 -38 24 -13 52 -30 61 -38 9 -8 25 -12 36 -9 11 4 24 1 30 -7 9 -10 4
-19 -18 -37 -36 -30 -38 -52 -7 -73 21 -14 25 -13 51 14 30 30 70 34 98 12 8
-7 47 -9 100 -7 l87 4 -6 -30 c-7 -37 7 -39 51 -5 l34 25 5 -21 c5 -19 9 -20
21 -10 8 7 20 10 26 6 6 -4 21 17 36 52 38 88 48 107 61 116 7 4 13 17 13 28
0 11 18 54 40 95 l40 76 -19 26 c-10 15 -26 68 -36 117 -9 50 -23 101 -30 115
-8 15 -11 45 -8 77 4 38 1 59 -10 77 -9 13 -33 55 -53 93 -20 37 -40 70 -44
73 -4 3 -15 29 -24 58 -10 29 -23 58 -30 65 -6 6 -20 32 -30 57 -21 49 -81
119 -100 116 -6 -1 -17 -5 -25 -10 -8 -5 -16 -4 -21 3 -4 7 -17 13 -29 14 -13
1 -35 15 -50 32 -14 17 -37 31 -50 32 -20 2 -22 -1 -16 -25 3 -15 11 -28 16
-30 15 -6 10 -22 -7 -22 -9 0 -32 16 -51 35 -19 19 -40 35 -46 35 -7 0 -38 19
-70 43 -84 62 -125 86 -155 93 -15 4 -41 17 -59 30 -17 13 -35 24 -40 24 -4 0
-14 13 -21 28 -13 30 -92 123 -92 109 0 -12 -49 25 -85 63 -29 30 -117 80
-142 80 -6 0 -24 5 -40 12 -39 16 -53 18 -53 7 0 -5 5 -9 10 -9 6 0 10 -4 10
-10 0 -16 -22 -12 -77 18 -34 17 -53 33 -53 45 0 42 -35 30 -101 -36 -16 -15
-32 -27 -36 -26 -27 4 -35 -3 -31 -26 6 -27 -1 -32 -20 -13 -9 9 -12 7 -12 -9
0 -16 -5 -20 -20 -16 -22 6 -23 3 -20 -65 2 -54 -20 -65 -58 -30 -34 30 -80
53 -89 45 -10 -11 -11 -61 0 -74 6 -9 5 -18 -3 -28 -18 -22 -39 -18 -51 9 -13
28 -89 61 -119 51 -15 -5 -22 0 -30 19 -5 14 -14 26 -20 26 -10 0 -12 -6 -14
-40 -1 -15 -51 -38 -61 -29 -3 3 -6 17 -7 31 -2 25 -3 25 -35 11 l-34 -13 7
26 c5 21 2 31 -15 43 -12 9 -23 29 -24 44 -1 15 -9 32 -17 38 -11 8 -9 9 10 3
l25 -6 -27 21 c-16 13 -28 29 -28 37 0 8 -7 14 -15 14 -8 0 -15 5 -15 11 0 5
-5 7 -12 3 -7 -4 -8 -3 -4 5 4 6 12 8 18 5 8 -5 9 5 5 32 -4 25 -3 34 3 24 13
-21 19 -10 13 22 -3 15 -9 25 -14 22 -5 -3 -7 -11 -3 -17 3 -7 -1 -4 -9 6 -8
10 -21 15 -30 11 -9 -3 -21 -2 -28 2 -21 13 -83 12 -94 -2 -8 -11 -22 -11 -80
0 -38 8 -72 12 -74 10 -2 -1 -10 4 -19 12 -8 9 -18 12 -21 7 -12 -16 -55 -10
-73 11 -17 21 -17 21 -18 -9z m867 -812 c3 -26 12 -54 20 -61 23 -23 15 -33
-23 -27 -29 4 -35 3 -27 -7 6 -7 8 -25 6 -40 -3 -26 -1 -28 32 -28 19 0 36 5
36 10 1 6 3 15 4 20 1 6 3 17 4 25 1 13 4 14 24 3 12 -7 47 -13 77 -13 l55 0
15 -45 c8 -25 19 -51 24 -58 5 -9 1 -15 -13 -19 -12 -3 -21 -11 -21 -18 0 -7
-17 -15 -40 -18 -25 -3 -48 -14 -62 -30 -23 -26 -93 -67 -114 -67 -6 0 -17 -6
-24 -14 -14 -17 -40 -10 -40 11 0 7 -10 24 -22 37 -13 13 -32 33 -43 46 -17
20 -18 23 -2 17 11 -4 17 -1 17 8 0 8 8 20 18 26 15 9 17 21 14 71 -4 58 11
113 29 102 8 -5 4 51 -7 99 -5 21 -3 27 10 27 9 0 16 8 16 17 0 36 30 -25 37
-74z m-2294 -1535 c4 -12 1 -26 -6 -31 -9 -7 -9 -10 0 -14 8 -3 10 -10 4 -21
-14 -28 -21 -82 -11 -82 6 0 11 10 11 23 1 16 2 18 6 5 2 -10 8 -18 13 -18 5
0 4 16 -1 35 -7 23 -7 41 0 53 8 13 11 6 12 -33 3 -78 4 -80 21 -77 17 3 34
-45 29 -80 -1 -11 4 -18 13 -18 9 0 16 -4 16 -10 0 -5 -5 -10 -11 -10 -7 0 -4
-11 6 -27 10 -15 19 -36 20 -47 6 -50 6 -51 15 -31 8 18 9 17 9 -7 1 -16 7
-28 14 -28 7 0 8 -3 2 -8 -12 -8 -14 -72 -3 -72 5 0 8 -11 8 -24 0 -13 7 -26
15 -30 8 -3 15 -14 15 -25 0 -10 7 -22 16 -25 12 -4 14 -13 10 -32 -8 -32 10
-59 29 -44 10 8 13 3 13 -24 0 -41 9 -59 24 -50 8 5 9 -6 4 -36 -6 -36 -3 -47
20 -77 22 -29 24 -37 13 -45 -10 -7 -8 -9 8 -5 18 4 20 2 14 -16 -6 -16 -2
-26 13 -40 18 -16 18 -18 3 -13 -17 6 -17 4 1 -22 20 -29 35 -61 37 -77 0 -5
6 -20 13 -32 7 -12 12 -30 12 -40 0 -14 2 -15 9 -5 6 10 10 8 16 -10 4 -12 8
-28 9 -34 0 -6 9 -18 19 -28 9 -10 17 -23 17 -29 0 -7 4 -6 10 3 5 8 10 11 10
6 0 -5 -7 -17 -16 -27 -16 -18 -11 -44 7 -33 5 3 7 10 4 15 -4 5 -1 9 4 9 6 0
11 -11 11 -25 0 -16 6 -25 16 -25 8 0 12 -5 9 -11 -4 -6 1 -17 11 -25 18 -15
18 -15 -3 -11 -20 4 -21 3 -9 -37 6 -22 15 -40 20 -38 4 2 15 -5 24 -16 9 -10
25 -21 35 -25 18 -7 24 -27 7 -27 -5 0 -10 -5 -10 -11 0 -5 4 -7 10 -4 6 3 7
-1 4 -10 -5 -13 -1 -15 22 -10 27 6 28 5 11 -9 -14 -11 -17 -21 -11 -38 l8
-23 6 25 7 25 11 -28 c8 -18 8 -35 2 -53 -13 -33 -13 -34 5 -34 8 0 15 7 15
16 0 8 5 12 10 9 8 -5 8 -11 0 -20 -6 -7 -7 -15 -3 -17 5 -1 0 -19 -9 -38 -15
-29 -18 -31 -18 -12 0 13 -6 22 -15 22 -8 0 -13 6 -11 13 1 6 1 9 -1 5 -8 -15
-21 -8 -26 13 -3 12 -10 18 -16 14 -8 -4 -6 -11 4 -21 8 -9 15 -27 15 -42 0
-19 -3 -23 -9 -13 -11 17 -25 -3 -16 -21 4 -7 0 -5 -8 4 -8 11 -17 14 -23 8
-6 -6 -15 -5 -24 1 -11 8 -12 12 -2 16 17 7 15 23 -4 23 -11 0 -14 5 -10 16 4
12 2 15 -9 11 -8 -4 -17 -1 -21 5 -4 7 -9 6 -15 -3 -6 -10 -9 -7 -10 11 0 22
-1 23 -8 5 -8 -19 -8 -19 -20 3 -6 12 -18 22 -26 22 -8 0 -17 11 -21 25 -3 14
-11 25 -16 25 -15 0 -37 32 -38 53 0 10 -4 16 -9 13 -14 -9 -54 35 -80 88 -13
27 -32 51 -42 53 -10 3 -16 9 -13 14 3 5 -2 9 -11 9 -9 0 -14 4 -10 9 3 5 1
12 -4 16 -6 3 -9 21 -7 40 1 23 -3 36 -12 40 -8 3 -12 8 -8 12 3 3 -1 14 -10
24 -8 9 -22 43 -30 74 -9 32 -22 68 -30 81 -9 12 -17 46 -20 74 -2 28 -17 90
-33 138 -17 48 -32 116 -35 152 -2 36 -11 99 -19 140 -28 134 -39 211 -34 217
3 3 2 16 -3 29 -8 19 -6 24 8 25 15 1 15 2 0 6 -15 4 -15 7 -2 39 8 19 10 34
5 34 -5 0 -11 -5 -13 -11 -2 -6 -4 46 -4 115 0 69 3 126 8 126 4 0 8 7 8 15 0
23 27 18 33 -7z"/>
<path d="M8572 3732 c-7 -2 -9 -9 -6 -15 5 -9 3 -8 -6 0 -9 8 -19 9 -32 2 -10
-5 -28 -9 -41 -8 -48 4 -97 -2 -97 -12 0 -5 6 -7 13 -3 10 6 10 4 0 -7 -10
-10 -16 -10 -25 -1 -16 16 -28 15 -28 -3 0 -21 -34 -37 -48 -23 -8 8 -14 4
-22 -16 -14 -39 -13 -42 11 -20 18 16 22 17 32 4 12 -15 44 -32 80 -44 11 -3
21 -16 25 -28 5 -21 5 -21 15 3 8 20 11 21 14 7 6 -24 80 -28 94 -6 4 6 9 5
12 -3 4 -9 8 -10 14 -4 12 15 36 12 49 -5 10 -12 14 -12 28 -1 9 7 16 11 16 7
0 -3 16 0 35 8 31 13 35 13 35 0 0 -7 5 -14 10 -14 6 0 10 5 10 11 0 6 7 9 15
5 8 -3 21 2 30 10 8 8 31 18 50 21 23 4 35 11 36 22 0 10 2 11 6 4 2 -7 10
-13 17 -13 16 0 56 38 56 53 0 9 -2 9 -8 1 -4 -6 -18 -14 -32 -18 -14 -4 -20
-4 -13 1 19 14 -2 35 -33 36 -16 0 -23 2 -16 4 24 9 11 21 -30 28 -24 4 -47
13 -51 19 -6 8 -10 8 -14 -2 -2 -6 -9 -9 -14 -6 -18 11 -63 12 -85 2 -13 -6
-31 -7 -41 -3 -23 10 -45 13 -61 7z"/>
</g>
</svg>
